<svg width="979" height="569" viewBox="0 0 979 569" fill="none" xmlns="http://www.w3.org/2000/svg">
<path d="M877.5 540C905.5 583.2 956.5 568 978.5 555V0H26.5C56.6667 0.333333 121.8 16.7 141 79.5C165 158 194 181 338.5 185C483 189 518 239 534.5 324C551 409 599 448.5 712.5 429.5C826 410.5 842.5 486 877.5 540Z" fill="#00A8CC" fill-opacity="0.2"/>
<path d="M877.894 316.264C905.923 341.565 956.977 332.663 979 325.049V0H26C56.1984 0.195225 121.4 9.78077 140.62 46.5611C164.645 92.5366 193.676 106.007 338.328 108.35C482.98 110.693 518.016 139.976 534.534 189.759C551.051 239.541 599.101 262.675 712.721 251.547C826.34 240.419 842.857 284.638 877.894 316.264Z" fill="#00A8CC" fill-opacity="0.2"/>
<g opacity="0.5" clip-path="url(#clip0)">
<path d="M120.61 196H0V195.961C2.01064 189.946 7.22174 185.397 13.6118 184.334C12.9891 182.546 12.6513 180.623 12.6513 178.622C12.6513 169.025 20.432 161.244 30.0293 161.244C32.0182 161.244 33.9298 161.578 35.7098 162.194C36.319 153.148 43.8487 146 53.0485 146C62.152 146 69.6207 153.001 70.3655 161.911C71.885 161.477 73.4913 161.244 75.1519 161.244C84.7493 161.244 92.53 169.025 92.53 178.622C92.53 180.026 92.3631 181.391 92.0483 182.699C95.0697 180.155 98.9716 178.622 103.232 178.622C112.829 178.622 120.61 186.403 120.61 196Z" fill="white"/>
</g>
<g opacity="0.5" clip-path="url(#clip1)">
<path d="M706.61 346H586V345.961C588.011 339.946 593.222 335.397 599.612 334.334C598.989 332.546 598.651 330.623 598.651 328.622C598.651 319.025 606.432 311.244 616.029 311.244C618.018 311.244 619.93 311.578 621.71 312.194C622.319 303.148 629.849 296 639.049 296C648.152 296 655.621 303.001 656.366 311.911C657.885 311.477 659.491 311.244 661.152 311.244C670.749 311.244 678.53 319.025 678.53 328.622C678.53 330.026 678.363 331.391 678.048 332.699C681.07 330.155 684.972 328.622 689.232 328.622C698.829 328.622 706.61 336.403 706.61 346Z" fill="white"/>
</g>
<g opacity="0.5" clip-path="url(#clip2)">
<path d="M944.61 171H824V170.961C826.011 164.946 831.222 160.397 837.612 159.334C836.989 157.546 836.651 155.623 836.651 153.622C836.651 144.025 844.432 136.244 854.029 136.244C856.018 136.244 857.93 136.578 859.71 137.194C860.319 128.148 867.849 121 877.049 121C886.152 121 893.621 128.001 894.366 136.911C895.885 136.477 897.491 136.244 899.152 136.244C908.749 136.244 916.53 144.025 916.53 153.622C916.53 155.026 916.363 156.391 916.048 157.699C919.07 155.155 922.972 153.622 927.232 153.622C936.829 153.622 944.61 161.403 944.61 171Z" fill="white"/>
</g>
<defs>
<clipPath id="clip0">
<rect width="120.61" height="50" fill="white" transform="translate(0 146)"/>
</clipPath>
<clipPath id="clip1">
<rect width="120.61" height="50" fill="white" transform="translate(586 296)"/>
</clipPath>
<clipPath id="clip2">
<rect width="120.61" height="50" fill="white" transform="translate(824 121)"/>
</clipPath>
</defs>
</svg>
